<svg width="406" height="912" viewBox="0 0 406 912" fill="none" xmlns="http://www.w3.org/2000/svg">
<path fill-rule="evenodd" clip-rule="evenodd" d="M435.693 2.68673C377.782 -10.3216 320.781 26.8912 265.929 50.3633C209.943 74.3212 152.686 98.028 109.346 142.338C65.0221 187.654 31.9144 245.066 14.4804 307.44C-2.78827 369.222 -4.94464 435.956 9.80835 498.455C23.9518 558.372 55.9827 612.872 97.0023 657.033C134.665 697.58 195.182 703.579 235.396 741.32C280.917 784.041 292.576 861.93 346.757 891.425C400.545 920.706 467.335 914.239 526.298 899.682C584.886 885.218 633.5 845.391 682.436 808.552C731.599 771.542 788.581 738.932 815.481 681.987C842.233 625.356 837.585 557.824 830.542 495.024C824.166 438.161 793.228 389.404 776.559 334.896C759.843 280.234 769.773 212.21 731.526 171.235C693.042 130.007 624.276 147.526 575.975 120.007C522.865 89.7476 494.764 15.9553 435.693 2.68673Z" fill="#FDDE6C" fill-opacity="0.5"/>
</svg>
