<svg width="395" height="924" viewBox="0 0 395 924" fill="none" xmlns="http://www.w3.org/2000/svg">
<path fill-rule="evenodd" clip-rule="evenodd" d="M-170.457 45.4553C-235.037 77.3444 -282.362 157.109 -342.256 195.945C-411.905 241.107 -500.468 233.57 -541.106 300.382C-580.444 365.057 -551.396 433.862 -526.987 499.659C-506.934 553.715 -466.626 596.618 -439.418 647.759C-410.816 701.522 -406.269 766.28 -361.779 810.197C-313.814 857.544 -248.454 890.134 -177.391 906.411C-102.505 923.564 -18.0599 935.002 56.3386 905.969C130.421 877.059 167.26 803.356 222.777 750.249C273.612 701.622 341.839 664.571 371.37 604.617C400.872 544.724 396.901 478.457 387.227 416.389C378.085 357.741 354.679 302.349 316.912 255.244C281.089 210.564 220.331 189.711 175.372 152.155C122.441 107.94 121.406 25.8392 50.5265 6.641C-19.4675 -12.3173 -102.755 12.0249 -170.457 45.4553Z" fill="#FDDE6C" fill-opacity="0.5"/>
</svg>
